<svg width="24" height="25" viewBox="0 0 24 25" fill="none" xmlns="http://www.w3.org/2000/svg">
<path d="M18.593 8.69486C19.0376 9.02237 19.1326 9.64837 18.8051 10.0931C18.5507 10.4385 18.2963 10.7668 18.0731 11.0528C17.6276 11.6236 17.0143 12.3882 16.3479 13.1556C15.6859 13.9181 14.9518 14.7064 14.2666 15.3119C13.9251 15.6136 13.5721 15.8911 13.2279 16.0986C12.9112 16.2895 12.476 16.5 11.9999 16.5C11.5238 16.5 11.0885 16.2895 10.7718 16.0986C10.4276 15.8911 10.0747 15.6136 9.7332 15.3119C9.04791 14.7064 8.31387 13.9181 7.65183 13.1556C6.98548 12.3882 6.37216 11.6236 5.92664 11.0528C5.70347 10.7668 5.44902 10.4385 5.19463 10.0931C4.86712 9.64837 4.96211 9.02237 5.4068 8.69486C5.58556 8.5632 5.79362 8.49983 5.99982 8.5H11.9999H17.9999C18.2061 8.49983 18.4142 8.5632 18.593 8.69486Z" fill="#8F8881"/>
</svg>
