<svg width="24" height="25" viewBox="0 0 24 25" fill="none" xmlns="http://www.w3.org/2000/svg">
<path d="M7 2.5C7 1.94772 6.55228 1.5 6 1.5C5.44772 1.5 5 1.94772 5 2.5V2.94885C5.38032 2.82821 5.78554 2.74208 6.21533 2.67961C6.46328 2.64357 6.72472 2.61476 7 2.59173V2.5Z" fill="#8F8881"/>
<path d="M19 2.94885C18.6197 2.82821 18.2145 2.74208 17.7847 2.67961C17.5367 2.64357 17.2753 2.61476 17 2.59173V2.5C17 1.94772 17.4477 1.5 18 1.5C18.5523 1.5 19 1.94772 19 2.5V2.94885Z" fill="#8F8881"/>
<path fill-rule="evenodd" clip-rule="evenodd" d="M13.0288 2.5H10.9712C9.02294 2.49997 7.45141 2.49994 6.21533 2.67961C4.92535 2.8671 3.8568 3.26781 3.01802 4.1746C2.18949 5.07031 1.83279 6.19272 1.66416 7.54866C1.49997 8.86894 1.49998 10.5541 1.5 12.6739V13.3261C1.49998 15.4459 1.49997 17.1311 1.66416 18.4513C1.83279 19.8073 2.18949 20.9297 3.01802 21.8254C3.8568 22.7322 4.92535 23.1329 6.21533 23.3204C7.45142 23.5001 9.02293 23.5 10.9712 23.5H13.0288C14.9771 23.5 16.5486 23.5001 17.7847 23.3204C19.0747 23.1329 20.1432 22.7322 20.982 21.8254C21.8105 20.9297 22.1672 19.8073 22.3358 18.4513C22.5 17.1311 22.5 15.4459 22.5 13.3261V12.6739C22.5 10.5541 22.5 8.86895 22.3358 7.54866C22.1672 6.19272 21.8105 5.07031 20.982 4.1746C20.1432 3.26781 19.0747 2.8671 17.7847 2.67961C16.5486 2.49994 14.9771 2.49997 13.0288 2.5ZM4.49783 9.5C4.03921 9.5 3.8099 9.5 3.66385 9.64417C3.51781 9.78833 3.51487 10.0147 3.509 10.4675C3.50027 11.1407 3.5 11.8942 3.5 12.7432V13.2568C3.5 15.4616 3.50182 17.0221 3.64887 18.2045C3.79327 19.3656 4.06263 20.0094 4.48622 20.4673C4.89956 20.9142 5.4647 21.1903 6.503 21.3412C7.57858 21.4975 9.00425 21.5 11.05 21.5H12.95C14.9957 21.5 16.4214 21.4975 17.497 21.3412C18.5353 21.1903 19.1004 20.9142 19.5138 20.4673C19.9374 20.0094 20.2067 19.3656 20.3511 18.2045C20.4982 17.0221 20.5 15.4616 20.5 13.2568V12.7432C20.5 11.8942 20.4997 11.1407 20.491 10.4675C20.4851 10.0147 20.4822 9.78833 20.3362 9.64417C20.1901 9.5 19.9608 9.5 19.5022 9.5H4.49783Z" fill="#8F8881"/>
<path fill-rule="evenodd" clip-rule="evenodd" d="M6.75 13.5C6.75 12.8096 7.30964 12.25 8 12.25H8.00897C8.69933 12.25 9.25897 12.8096 9.25897 13.5C9.25897 14.1904 8.69933 14.75 8.00897 14.75H8C7.30964 14.75 6.75 14.1904 6.75 13.5ZM10.7455 13.5C10.7455 12.8096 11.3052 12.25 11.9955 12.25H12.0045C12.6948 12.25 13.2545 12.8096 13.2545 13.5C13.2545 14.1904 12.6948 14.75 12.0045 14.75H11.9955C11.3052 14.75 10.7455 14.1904 10.7455 13.5ZM14.741 13.5C14.741 12.8096 15.3007 12.25 15.991 12.25H16C16.6904 12.25 17.25 12.8096 17.25 13.5C17.25 14.1904 16.6904 14.75 16 14.75H15.991C15.3007 14.75 14.741 14.1904 14.741 13.5ZM6.75 17.5C6.75 16.8096 7.30964 16.25 8 16.25H8.00897C8.69933 16.25 9.25897 16.8096 9.25897 17.5C9.25897 18.1904 8.69933 18.75 8.00897 18.75H8C7.30964 18.75 6.75 18.1904 6.75 17.5ZM10.7455 17.5C10.7455 16.8096 11.3052 16.25 11.9955 16.25H12.0045C12.6948 16.25 13.2545 16.8096 13.2545 17.5C13.2545 18.1904 12.6948 18.75 12.0045 18.75H11.9955C11.3052 18.75 10.7455 18.1904 10.7455 17.5Z" fill="#8F8881"/>
</svg>
