<svg width="24" height="25" viewBox="0 0 24 25" fill="none" xmlns="http://www.w3.org/2000/svg">
<path d="M17.4776 9.51106C17.485 9.51102 17.4925 9.51101 17.5 9.51101C19.9853 9.51101 22 11.5294 22 14.0193C22 16.3398 20.25 18.2508 18 18.5M17.4776 9.51106C17.4924 9.34606 17.5 9.17896 17.5 9.01009C17.5 5.96695 15.0376 3.5 12 3.5C9.12324 3.5 6.76233 5.71267 6.52042 8.53192M17.4776 9.51106C17.3753 10.6476 16.9286 11.6846 16.2428 12.5165M6.52042 8.53192C3.98398 8.77373 2 10.9139 2 13.5183C2 15.9417 3.71776 17.9632 6 18.4273M6.52042 8.53192C6.67826 8.51687 6.83823 8.50917 7 8.50917C8.12582 8.50917 9.16474 8.88194 10.0005 9.51101" stroke="#8F8881" stroke-width="1.5" stroke-linecap="round" stroke-linejoin="round"/>
<path d="M12 13.5V21.5M12 13.5C11.2998 13.5 9.99153 15.4943 9.5 16M12 13.5C12.7002 13.5 14.0085 15.4943 14.5 16" stroke="#8F8881" stroke-width="1.5" stroke-linecap="round" stroke-linejoin="round"/>
</svg>
